<svg xmlns="http://www.w3.org/2000/svg" viewBox="0 0 64 64" role="img" aria-label="Produksia"><defs><mask id="lmp-celah"><rect width="64" height="64" fill="#fff"/><polygon points="12,30.1 24,20.5 24,24 12,33.6" fill="#000"/></mask></defs><g transform="translate(5 0)"><path d="M14 8H34A16 16 0 0 1 34 40H24V54a2 2 0 0 1-2 2H14a2 2 0 0 1-2-2V10a2 2 0 0 1 2-2ZM24 18H33A6 6 0 0 1 33 30H24Z" fill="#FFFFFF" fill-rule="evenodd" mask="url(#lmp-celah)"/><polygon points="4,40 24,24 24,33 4,49" fill="#F86E18"/></g></svg>
